{"title":"Skyline-AC3-XviD-BRRip 2010 TBS","uid":6066594,"size":1566591337,"categoryP":"video","categoryS":"movies","magnet":"?xt=urn:btih:d7085891afc6ad7007dac2f17fcf64d2464eed18&amp;dn=Skyline-AC3-XviD-BRRip+2010+TBS&amp;tr=udp%3A%2F%2Ftracker.openbittorrent.com%3A80&amp;tr=udp%3A%2F%2Fopen.demonii.com%3A1337&amp;tr=udp%3A%2F%2Ftracker.coppersurfer.tk%3A6969&amp;tr=udp%3A%2F%2Fexodus.desync.com%3A6969","seeders":0,"leechers":0,"uploader":"FatFreddy30","files":-1,"time":1293390994,"description":"Strange lights descend on the city of Los Angeles, drawing people outside like moths to a flame where an extraterrestrial force threatens to swallow the entire human population off the face of the Earth...\n &lt;a href=&quot;\nhttp://www.imdb.com/title/tt1564585/&quot; rel=&quot;nofollow&quot; target=&quot;_NEW&quot;&gt;\nhttp://www.imdb.com/title/tt1564585/&lt;/a&gt;\n\nAudio: English.   Subs: Dutch, English (srt).\n\n\nNa een feestje wordt een groep vrienden midden in de nacht gewekt door een eng licht dat door het raam naar binnen schijnt. Als motten aangetrokken door een vlam lokt het licht mensen naar buiten waar ze plotseling in het niets verdwijnen. Snel ontdekken ze dat een buitenaardse kracht probeert de gehele mensheid op te slokken. Nu moet de groep overlevenden vechten voor hun vrijheid terwijl de wereld zijn geheimen prijs geeft...\n &lt;a href=&quot;\nhttp://www.moviemeter.nl/film/68064&quot; rel=&quot;nofollow&quot; target=&quot;_NEW&quot;&gt;\nhttp://www.moviemeter.nl/film/68064&lt;/a&gt;\n\nAudio: Engels.    Ondertitels: Engels, Nederlands (srt).\n\nGeneral\nComplete name                    : Skyline-AC3-XviD-BRRip 2010 TBS\\Skyline-AC3-XviD-BRRip 2010 TBS.avi\nFormat                           : AVI\nFormat/Info                      : Audio Video Interleave\nFile size                        : 1.46 GiB\nDuration                         : 1h 28mn\nOverall bit rate                 : 2 354 Kbps\nWriting application              : VirtualDubMod 1.5.4.1 (build 2178/release)\nWriting library                  : VirtualDubMod build 2178/release\nSource                           : Skyline.AC3D.DL.720p.BluRay.x264-Vetax\n\nVideo\nID                               : 0\nFormat                           : MPEG-4 Visual\nFormat profile                   : Simple@L3\nFormat settings, BVOP            : No\nFormat settings, QPel            : No\nFormat settings, GMC             : No warppoints\nFormat settings, Matrix          : Default (H.263)\nCodec ID                         : XVID\nCodec ID/Hint                    : XviD\nDuration                         : 1h 28mn\nBit rate                         : 1 896 Kbps\nWidth                            : 720 pixels\nHeight                           : 400 pixels\nDisplay aspect ratio             : 16:9\nFrame rate                       : 25.000 fps\nResolution                       : 8 bits\nColorimetry                      : 4:2:0\nScan type                        : Progressive\nBits/(Pixel*Frame)               : 0.263\nStream size                      : 1.18 GiB (81%)\nWriting library                  : XviD 1.1.2 (UTC 2006-11-01)\n\nAudio\nID                               : 1\nFormat                           : AC-3\nFormat/Info                      : Audio Coding 3\nCodec ID                         : 2000\nDuration                         : 1h 28mn\nBit rate mode                    : Constant\nBit rate                         : 448 Kbps\nChannel(s)                       : 6 channels\nChannel positions                : Front: L C R, Surround: L R, LFE\nSampling rate                    : 48.0 KHz\nStream size                      : 284 MiB (19%)\nAlignment                        : Split accross interleaves\nInterleave, duration             : 40 ms (1.00 video frame)\nInterleave, preload duration     : 500 ms\n\nThanks to Simply Releases Toppers for the Dutch subs.\n\nBlackbeard  TBS.","torrent":{"xt":"urn:btih:d7085891afc6ad7007dac2f17fcf64d2464eed18","amp;dn":"Skyline-AC3-XviD-BRRip+2010+TBS","amp;tr":["udp%3A%2F%2Ftracker.openbittorrent.com%3A80","udp%3A%2F%2Fopen.demonii.com%3A1337","udp%3A%2F%2Ftracker.coppersurfer.tk%3A6969","udp%3A%2F%2Fexodus.desync.com%3A6969"],"infoHash":"d7085891afc6ad7007dac2f17fcf64d2464eed18","infoHashBuffer":{"type":"Buffer","data":[215,8,88,145,175,198,173,112,7,218,194,241,127,207,100,210,70,78,237,24]},"announce":[],"urlList":[]}}